<?xml version="1.0" standalone="no"?>
<!DOCTYPE svg PUBLIC "-//W3C//DTD SVG 20010904//EN"
 "http://www.w3.org/TR/2001/REC-SVG-20010904/DTD/svg10.dtd">
<svg version="1.0" xmlns="http://www.w3.org/2000/svg"
 width="118.000000pt" height="52.000000pt" viewBox="0 0 118.000000 52.000000"
 preserveAspectRatio="xMidYMid meet">

<g transform="translate(0.000000,52.000000) scale(0.100000,-0.100000)"
fill="#000000" stroke="none">
<path d="M180 460 c10 -18 21 -20 138 -20 l128 0 37 -75 c31 -64 41 -75 62
-75 21 0 31 11 62 75 l37 75 128 0 c117 0 128 2 138 20 10 20 8 20 -140 20
l-150 0 -37 -75 -38 -74 -39 74 -40 75 -148 0 c-146 0 -148 0 -138 -20z"/>
<path d="M220 380 c9 -18 21 -20 99 -20 l88 0 19 -35 c10 -20 26 -35 36 -35
23 0 23 1 -7 60 l-25 50 -111 0 c-107 0 -109 -1 -99 -20z"/>
<path d="M635 350 c-30 -59 -30 -60 -7 -60 10 0 26 15 36 35 l19 35 86 0 c75
0 88 3 99 20 12 20 10 20 -98 20 l-110 0 -25 -50z"/>
<path d="M49 121 c71 -84 66 -84 127 -16 29 33 48 62 42 64 -7 2 -26 -13 -44
-34 l-32 -38 -32 36 c-25 29 -39 37 -67 37 l-35 0 41 -49z"/>
<path d="M340 110 l0 -60 83 2 c71 1 75 2 32 7 -37 4 -51 11 -53 24 -3 14 4
17 37 17 23 0 41 5 41 10 0 6 -18 10 -40 10 -29 0 -40 4 -40 15 0 11 12 15 50
15 28 0 50 5 50 10 0 6 -33 10 -80 10 l-80 0 0 -60z"/>
<path d="M620 110 l0 -60 88 2 c77 1 81 2 32 7 l-55 6 -3 53 c-3 50 -4 52 -33
52 -29 0 -29 0 -29 -60z"/>
<path d="M911 110 c-32 -37 -47 -60 -37 -60 8 0 18 5 21 10 8 13 105 13 105 0
0 -5 18 -10 41 -10 l40 0 -52 60 c-29 33 -55 60 -59 60 -4 0 -30 -27 -59 -60z
m54 -10 c3 -5 -3 -10 -15 -10 -12 0 -18 5 -15 10 3 6 10 10 15 10 5 0 12 -4
15 -10z"/>
</g>
</svg>
